<svg id="Layer_1" data-name="Layer 1" xmlns="http://www.w3.org/2000/svg" viewBox="0 0 99.21 99.21"><defs><style>.cls-1{fill:#94c72e;}.cls-2{fill:#fff;}</style></defs><title>kommently</title><rect class="cls-1" width="99.21" height="99.21"/><path class="cls-2" d="M84.91,16.61H14.31a3,3,0,0,0-3,3v47.8a3,3,0,0,0,3,3h50l19,11.8a2.93,2.93,0,0,0,1.6.4,3,3,0,0,0,3-3v-60A3,3,0,0,0,84.91,16.61Zm-18.3,22h-35a3,3,0,0,1,0-6h35a3,3,0,0,1,0,6Zm0,15h-25a3,3,0,0,1,0-6h25a3,3,0,0,1,0,6Zm-33,0h-2a3,3,0,0,1,0-6h2a3,3,0,0,1,0,6Z"/></svg>