<svg id="Layer_1" data-name="Layer 1" xmlns="http://www.w3.org/2000/svg" viewBox="0 0 99.21 99.21"><defs><style>.cls-1{fill:#94c72e;}.cls-2{fill:#fff;}</style></defs><title>kommently</title><path class="cls-1" d="M84.91,10.11H14.31a3,3,0,0,0-3,3v47.8a3,3,0,0,0,3,3h50l19,11.8a2.93,2.93,0,0,0,1.6.4,3,3,0,0,0,3-3v-60A3,3,0,0,0,84.91,10.11Zm-18.3,22h-35a3,3,0,0,1,0-6h35a3,3,0,0,1,0,6Z"/><path class="cls-2" d="M66.61,47.11h-25a3,3,0,0,1,0-6h25a3,3,0,0,1,0,6Z"/><path class="cls-2" d="M33.61,47.11h-2a3,3,0,0,1,0-6h2a3,3,0,0,1,0,6Z"/><path class="cls-1" d="M14.81,82.33h.39A.9.9,0,0,0,16,82l2.39-3.48a1.23,1.23,0,0,1,.46-.38,1.55,1.55,0,0,1,.61-.11H21.6l-3.16,4.31a2.14,2.14,0,0,1-.72.64,1.89,1.89,0,0,1,.5.28,2,2,0,0,1,.43.48l3.21,4.94H19.65a1.86,1.86,0,0,1-.36,0,1,1,0,0,1-.26-.09,1.33,1.33,0,0,1-.19-.14,1.73,1.73,0,0,1-.15-.2l-2.41-3.7a.76.76,0,0,0-.33-.29,1.64,1.64,0,0,0-.55-.08h-.59v4.53H12.34V78h2.47Z"/><path class="cls-1" d="M25.36,81a4.38,4.38,0,0,1,1.57.27,3.3,3.3,0,0,1,1.21.77,3.52,3.52,0,0,1,.79,1.22,4.37,4.37,0,0,1,.28,1.62,4.42,4.42,0,0,1-.28,1.63,3.52,3.52,0,0,1-.79,1.24,3.32,3.32,0,0,1-1.21.78,4.73,4.73,0,0,1-3.15,0,3.4,3.4,0,0,1-1.23-.78,3.54,3.54,0,0,1-.8-1.24,4.64,4.64,0,0,1-.28-1.63,4.58,4.58,0,0,1,.28-1.62,3.55,3.55,0,0,1,.8-1.22,3.38,3.38,0,0,1,1.23-.77A4.4,4.4,0,0,1,25.36,81Zm0,6.12a1.28,1.28,0,0,0,1.15-.55,3.12,3.12,0,0,0,.37-1.68,3.08,3.08,0,0,0-.37-1.67,1.3,1.3,0,0,0-1.15-.54,1.33,1.33,0,0,0-1.18.54,3,3,0,0,0-.37,1.67,3,3,0,0,0,.37,1.68A1.32,1.32,0,0,0,25.36,87.1Z"/><path class="cls-1" d="M30.35,88.67V81.09h1.41a.53.53,0,0,1,.55.38l.12.41a4.48,4.48,0,0,1,.4-.36,2.57,2.57,0,0,1,.44-.29A2.24,2.24,0,0,1,34.38,81a1.76,1.76,0,0,1,1.14.35,2.15,2.15,0,0,1,.68,1,2,2,0,0,1,.47-.6,2.6,2.6,0,0,1,.59-.41,2.93,2.93,0,0,1,.67-.22,3.39,3.39,0,0,1,.7-.07,3.21,3.21,0,0,1,1.16.19,2.25,2.25,0,0,1,.84.56,2.47,2.47,0,0,1,.52.91,4.06,4.06,0,0,1,.17,1.21v4.82H39.06V83.85c0-.78-.34-1.17-1-1.17a1,1,0,0,0-.76.3,1.18,1.18,0,0,0-.31.87v4.82H34.72V83.85a1.25,1.25,0,0,0-.26-.91,1,1,0,0,0-.75-.26,1.18,1.18,0,0,0-.58.14,2,2,0,0,0-.51.37v5.48Z"/><path class="cls-1" d="M42.78,88.67V81.09h1.4a.54.54,0,0,1,.56.38l.12.41a4.48,4.48,0,0,1,.4-.36,2.23,2.23,0,0,1,.44-.29,2.82,2.82,0,0,1,.51-.19,2.77,2.77,0,0,1,.6-.06,1.76,1.76,0,0,1,1.14.35,2.15,2.15,0,0,1,.68,1,2,2,0,0,1,.47-.6,2.6,2.6,0,0,1,.59-.41,2.93,2.93,0,0,1,.67-.22,3.33,3.33,0,0,1,.7-.07,3.21,3.21,0,0,1,1.16.19,2.34,2.34,0,0,1,.84.56,2.47,2.47,0,0,1,.52.91,4.06,4.06,0,0,1,.17,1.21v4.82H51.49V83.85c0-.78-.34-1.17-1-1.17a1,1,0,0,0-.76.3,1.14,1.14,0,0,0-.31.87v4.82H47.15V83.85a1.3,1.3,0,0,0-.26-.91,1,1,0,0,0-.75-.26,1.18,1.18,0,0,0-.58.14,2,2,0,0,0-.51.37v5.48Z"/><path class="cls-1" d="M58.55,81a3.85,3.85,0,0,1,1.38.23,2.92,2.92,0,0,1,1.07.68A3.06,3.06,0,0,1,61.7,83,4,4,0,0,1,62,84.44c0,.17,0,.31,0,.42a.61.61,0,0,1-.08.26.34.34,0,0,1-.16.13.85.85,0,0,1-.25,0H57.07a2.16,2.16,0,0,0,.58,1.38,1.69,1.69,0,0,0,1.21.43,1.89,1.89,0,0,0,.67-.1,2.7,2.7,0,0,0,.51-.21l.41-.21a.94.94,0,0,1,.39-.1.47.47,0,0,1,.41.2l.66.81a3.56,3.56,0,0,1-.76.66,4.8,4.8,0,0,1-.83.39,5.49,5.49,0,0,1-.85.2,8,8,0,0,1-.82,0,4.06,4.06,0,0,1-1.49-.26,3.38,3.38,0,0,1-1.22-.77,3.55,3.55,0,0,1-.83-1.27,4.75,4.75,0,0,1-.3-1.77,4,4,0,0,1,.26-1.43,3.61,3.61,0,0,1,.74-1.2A3.65,3.65,0,0,1,57,81.27,4.05,4.05,0,0,1,58.55,81Zm0,1.56a1.34,1.34,0,0,0-1,.37A1.81,1.81,0,0,0,57.1,84h2.82a1.88,1.88,0,0,0-.07-.53,1.18,1.18,0,0,0-.22-.45,1.26,1.26,0,0,0-.42-.33A1.43,1.43,0,0,0,58.59,82.54Z"/><path class="cls-1" d="M63.08,88.67V81.09h1.41a.53.53,0,0,1,.55.38l.13.44a5.45,5.45,0,0,1,.46-.38,2.29,2.29,0,0,1,.5-.3A3.18,3.18,0,0,1,66.7,81a3.58,3.58,0,0,1,.68-.06,2.73,2.73,0,0,1,1.1.21,2.17,2.17,0,0,1,.8.6,2.51,2.51,0,0,1,.5.91A3.9,3.9,0,0,1,70,83.85v4.82H67.68V83.85a1.3,1.3,0,0,0-.25-.86.91.91,0,0,0-.75-.31,1.5,1.5,0,0,0-.7.16,2.52,2.52,0,0,0-.63.43v5.4Z"/><path class="cls-1" d="M74,88.78a2.61,2.61,0,0,1-1-.16,1.9,1.9,0,0,1-.69-.44,1.92,1.92,0,0,1-.43-.7,2.85,2.85,0,0,1-.14-.91V82.66h-.65a.44.44,0,0,1-.3-.12.42.42,0,0,1-.12-.33v-.88l1.21-.24.44-1.85a.45.45,0,0,1,.5-.35h1.18v2.22h1.88v1.55H74.06v3.76a.67.67,0,0,0,.13.43.44.44,0,0,0,.37.17l.21,0,.14-.06.12-.06a.25.25,0,0,1,.13,0,.28.28,0,0,1,.16.05.69.69,0,0,1,.13.15l.68,1.07a3.13,3.13,0,0,1-1,.5A3.91,3.91,0,0,1,74,88.78Z"/><path class="cls-1" d="M79.18,77.73V88.67H76.92V77.73Z"/><path class="cls-1" d="M83.86,90.63a.8.8,0,0,1-.25.33.81.81,0,0,1-.47.11H81.45L82.91,88l-3-6.91h2a.6.6,0,0,1,.4.12.63.63,0,0,1,.21.28l1.24,3.26a7.4,7.4,0,0,1,.29.91c0-.16.1-.31.16-.47s.11-.3.17-.45l1.12-3.25a.5.5,0,0,1,.24-.28.6.6,0,0,1,.36-.12h1.83Z"/></svg>